<?xml version="1.0" standalone="no"?>
<!DOCTYPE svg PUBLIC "-//W3C//DTD SVG 20010904//EN"
 "http://www.w3.org/TR/2001/REC-SVG-20010904/DTD/svg10.dtd">
<svg version="1.0" xmlns="http://www.w3.org/2000/svg"
 width="1200.000000pt" height="630.000000pt" viewBox="0 0 1200.000000 630.000000"
 preserveAspectRatio="xMidYMid meet">

<g transform="translate(0.000000,630.000000) scale(0.100000,-0.100000)"
fill="#000000" stroke="none">
<path d="M3150 5435 c0 -2 291 -238 648 -523 356 -285 952 -763 1326 -1063
373 -299 723 -579 777 -622 l99 -78 99 78 c54 43 404 323 777 622 374 300 970
778 1327 1063 356 285 647 521 647 523 0 3 -1282 5 -2850 5 -1567 0 -2850 -2
-2850 -5z"/>
<path d="M2952 3158 c2 -1353 6 -1938 14 -1951 11 -19 47 16 879 878 149 154
486 502 749 772 262 271 475 497 472 502 -3 4 -308 255 -677 557 -668 546
-860 703 -1210 989 -100 83 -193 158 -206 168 l-23 19 2 -1934z"/>
<path d="M8995 5039 c-27 -23 -102 -83 -165 -134 -63 -52 -178 -145 -255 -207
-77 -63 -383 -311 -680 -552 -924 -751 -955 -777 -955 -785 0 -3 145 -157 323
-342 177 -184 646 -672 1041 -1083 632 -658 720 -746 730 -729 11 18 20 2326
14 3421 l-3 452 -50 -41z"/>
<path d="M6310 2860 c-168 -143 -307 -260 -310 -260 -3 0 -144 115 -313 255
-169 140 -314 255 -322 255 -7 0 -25 -15 -40 -32 -16 -18 -206 -215 -424 -438
-218 -223 -596 -610 -840 -860 -245 -250 -545 -556 -668 -680 -123 -125 -223
-229 -223 -233 0 -4 1260 -7 2801 -7 1739 0 2799 4 2797 9 -1 6 -232 250 -513
543 -850 888 -1637 1708 -1639 1708 -1 0 -139 -117 -306 -260z"/>
</g>
</svg>
