<svg id="svg" version="1.1" xmlns="http://www.w3.org/2000/svg" xmlns:xlink="http://www.w3.org/1999/xlink" width="400" height="400" viewBox="0, 0, 400,400"><g id="svgg"><path id="path0" d="M12.300 305.499 C 15.875 305.566,21.725 305.566,25.300 305.499 C 28.875 305.433,25.950 305.379,18.800 305.379 C 11.650 305.379,8.725 305.433,12.300 305.499 M119.320 305.498 C 121.255 305.572,124.315 305.571,126.120 305.497 C 127.924 305.423,126.340 305.363,122.600 305.364 C 118.860 305.364,117.384 305.425,119.320 305.498 M219.300 305.499 C 223.205 305.565,229.595 305.565,233.500 305.499 C 237.405 305.434,234.210 305.380,226.400 305.380 C 218.590 305.380,215.395 305.434,219.300 305.499 M353.500 305.500 C 357.955 305.564,365.245 305.564,369.700 305.500 C 374.155 305.435,370.510 305.382,361.600 305.382 C 352.690 305.382,349.045 305.435,353.500 305.500 " stroke="none" fill="#fcfcfc" fill-rule="evenodd"></path><path id="path1" d="" stroke="none" fill="#100fcfc" fill-rule="evenodd"></path><path id="path2" d="" stroke="none" fill="#100fcfc" fill-rule="evenodd"></path><path id="path3" d="" stroke="none" fill="#100fcfc" fill-rule="evenodd"></path><path id="path4" d="" stroke="none" fill="#100fcfc" fill-rule="evenodd"></path></g></svg>