<?xml version="1.0" standalone="no"?>
<!DOCTYPE svg PUBLIC "-//W3C//DTD SVG 20010904//EN"
 "http://www.w3.org/TR/2001/REC-SVG-20010904/DTD/svg10.dtd">
<svg version="1.0" xmlns="http://www.w3.org/2000/svg"
 width="1000.000000pt" height="1000.000000pt" viewBox="0 0 1000.000000 1000.000000"
 preserveAspectRatio="xMidYMid meet">

<g transform="translate(0.000000,1000.000000) scale(0.100000,-0.100000)"
fill="#000000" stroke="none">
<path d="M5240 8083 l-105 -4 -380 -842 c-208 -463 -621 -1380 -917 -2037
-474 -1050 -621 -1393 -734 -1704 -16 -44 -34 -81 -39 -83 -6 -2 -32 59 -57
134 -67 198 -103 282 -871 2028 -382 869 -786 1788 -898 2043 l-203 462 -443
0 -443 0 0 -2855 0 -2855 320 0 320 0 0 2238 c0 2025 -5 2590 -25 2680 -3 12
-1 22 4 22 4 0 25 -66 45 -147 21 -82 57 -209 82 -283 30 -89 379 -880 1022
-2320 l977 -2185 165 -3 165 -2 977 2197 c538 1209 990 2227 1004 2263 15 36
51 148 80 250 l55 185 -6 -230 c-3 -126 -10 -306 -15 -400 -5 -94 -9 -1081
-10 -2217 l0 -2048 350 0 350 0 0 1215 0 1215 323 0 c228 0 350 -4 417 -14
316 -48 544 -223 808 -621 48 -72 310 -505 582 -962 l495 -832 398 -1 c218 0
397 3 397 6 0 9 -1175 1887 -1270 2029 -113 168 -187 260 -296 365 -99 96
-174 149 -282 204 -40 20 -70 41 -67 46 3 4 20 12 38 15 153 34 458 175 606
282 351 252 564 619 611 1052 15 137 8 387 -15 514 -53 296 -172 525 -379 733
-206 206 -452 335 -778 408 -225 51 -301 54 -1313 58 -517 2 -987 2 -1045 1z
m2018 -632 c306 -57 529 -189 672 -396 182 -264 199 -738 39 -1058 -143 -286
-376 -464 -723 -554 l-101 -27 -567 -3 -568 -4 0 1036 0 1037 568 -5 c523 -4
576 -6 680 -26z"/>
</g>
</svg>
